<svg xmlns="http://www.w3.org/2000/svg" width="512" height="512" viewBox="0 0 512 512">
<g>
<path d="M 0.00 0.00 L 512.00 0.00 L 394.25 0.12 C328.92,0.19 278.97,0.61 282.05,1.06 C300.93,3.84 318.76,17.10 327.81,35.08 C337.09,53.50 337.31,73.76 328.44,91.78 C314.65,119.81 282.41,134.15 253.39,125.16 C230.36,118.03 212.55,98.10 208.36,74.76 C205.13,56.79 210.19,37.82 222.10,23.22 C231.28,11.96 248.04,2.61 262.50,0.70 C262.52,0.69 262.53,0.69 262.53,0.69 C262.53,0.47 204.75,0.23 132.75,0.15 L 0.00 0.00 ZM 136.41 175.35 C114.86,180.76 92.99,174.71 77.58,159.05 C66.05,147.34 60.79,134.65 60.77,118.50 C60.75,101.72 65.85,89.31 77.60,77.56 C90.11,65.05 103.33,59.70 121.62,59.73 C138.35,59.76 152.31,65.45 163.97,77.00 C181.90,94.77 186.19,121.59 174.82,144.94 C168.20,158.55 151.89,171.46 136.41,175.35 Z" fill="rgb(87,99,108)"/>
<path d="M 0.00 0.00 L 0.08 123.25 C0.15,228.47 0.35,245.62 1.49,240.50 C7.29,214.44 30.66,196.05 58.04,196.01 C73.88,195.99 86.79,201.07 98.14,211.77 C110.48,223.41 116.86,239.30 115.68,255.49 C113.79,281.55 95.65,302.07 69.78,307.41 C60.20,309.39 56.90,309.40 47.21,307.46 C35.25,305.08 25.88,300.00 16.95,291.08 C8.42,282.54 3.83,274.47 1.57,264.00 C0.33,258.28 0.15,272.81 0.08,384.75 L 0.00 512.00 ZM 114.41 440.02 C95.30,444.91 76.65,439.55 62.25,425.01 C51.89,414.55 47.00,402.53 47.00,387.50 C47.00,372.09 52.05,359.88 62.93,349.01 C84.12,327.81 116.64,327.55 138.75,348.40 C147.07,356.25 152.02,365.35 154.43,377.21 C156.35,386.65 156.36,388.65 154.49,397.47 C152.11,408.72 147.01,418.21 139.25,425.87 C131.29,433.72 124.97,437.32 114.41,440.02 ZM 308.18 12.05 C325.29,24.34 335.28,44.36 334.93,65.10 C335.07,54.98 332.69,44.78 327.81,35.08 C323.21,25.92 316.32,18.00 308.18,12.05 ZM 216.44 31.33 C208.66,44.49 205.70,59.97 208.36,74.76 C205.56,59.20 208.75,43.97 216.44,31.33 ZM 253.65 0.54 C259.39,0.59 262.53,0.64 262.53,0.69 C262.53,0.69 262.52,0.69 262.50,0.70 C261.04,0.89 259.55,1.16 258.05,1.50 C259.37,1.05 258.96,0.74 253.65,0.54 ZM 282.63 0.93 L 285.61 1.71 C284.43,1.45 283.24,1.24 282.05,1.06 C281.75,1.02 281.95,0.97 282.63,0.93 ZM 246.76 5.26 C242.94,6.93 239.19,8.96 235.69,11.26 C239.13,8.95 242.83,6.94 246.76,5.26 Z" fill="rgb(135,146,157)"/>
<path d="M 512.00 512.00 L 0.00 512.00 L 108.25 511.93 C203.83,511.88 215.88,511.70 211.21,510.44 C187.90,504.17 171.94,483.85 172.02,460.54 C172.07,446.28 176.72,435.20 186.88,425.09 C201.13,410.91 221.92,405.90 241.00,412.04 C266.67,420.29 281.98,447.18 275.47,472.54 C272.98,482.24 269.12,489.02 262.06,496.12 C254.85,503.36 246.44,508.21 237.22,510.45 C232.25,511.65 249.99,511.84 371.75,511.92 ZM 375.14 487.04 C366.88,489.59 352.77,489.63 345.00,487.11 C323.68,480.22 310.00,462.08 310.00,440.68 C310.00,404.95 349.12,381.30 381.84,397.25 C390.75,401.60 400.63,411.38 404.81,420.00 C417.54,446.25 403.35,478.32 375.14,487.04 ZM 472.22 388.72 C465.48,392.07 464.20,392.35 454.72,392.59 C442.11,392.91 441.40,392.77 431.38,387.96 C402.66,374.19 396.24,335.49 418.96,313.12 C432.32,299.96 449.58,295.79 466.77,301.56 C481.62,306.54 492.36,317.51 497.47,332.92 C498.87,337.12 499.15,340.44 498.79,348.38 C498.38,357.47 497.97,359.27 494.69,366.05 C489.96,375.86 482.05,383.85 472.22,388.72 ZM 10.07 283.14 C12.02,285.80 14.29,288.41 16.95,291.08 C20.29,294.41 23.69,297.21 27.26,299.53 C20.47,295.28 14.61,289.70 10.07,283.14 ZM 8.84 222.69 C12.73,216.35 17.67,211.14 23.77,206.93 C17.84,211.17 12.76,216.50 8.84,222.69 ZM 39.35 199.02 C45.37,196.85 50.90,196.02 58.04,196.01 C51.52,196.02 45.23,197.07 39.35,199.02 ZM 229.16 111.39 C222.83,105.79 217.59,99.08 214.06,91.76 C214.01,91.66 213.96,91.56 213.92,91.46 C217.65,98.98 222.86,105.77 229.16,111.39 ZM 235.69 11.26 C232.45,13.39 229.42,15.76 226.73,18.28 C231.13,14.04 236.22,10.46 242.06,7.48 C239.85,8.63 237.73,9.89 235.69,11.26 ZM 1.49 240.50 C1.17,241.95 0.92,241.62 0.73,238.01 C1.00,241.32 1.38,240.35 1.94,238.50 C2.05,238.11 2.17,237.73 2.29,237.34 C2.00,238.38 1.73,239.43 1.49,240.50 ZM 1.02 263.23 C1.17,262.64 1.36,263.02 1.57,264.00 C1.82,265.17 2.10,266.31 2.41,267.42 ZM 253.69 2.68 C253.96,2.59 254.23,2.50 254.50,2.41 L 258.66 1.07 C258.77,1.20 258.52,1.34 258.05,1.50 C256.61,1.83 255.15,2.22 253.69,2.68 ZM 207.74 56.75 C207.10,62.46 207.25,68.35 208.28,74.30 C207.22,68.44 207.04,62.58 207.74,56.75 Z" fill="rgb(179,189,200)"/>
<path d="M 0.06 386.25 L 0.11 260.50 L 2.83 268.66 C9.39,288.40 26.46,303.33 47.21,307.46 C56.90,309.40 60.20,309.39 69.78,307.41 C95.65,302.07 113.79,281.55 115.68,255.49 C116.86,239.30 110.48,223.41 98.14,211.77 C86.79,201.07 73.88,195.99 58.04,196.01 C47.93,196.03 41.05,197.69 31.43,202.44 C16.52,209.80 7.05,221.38 1.94,238.50 C0.19,244.35 0.14,241.44 0.07,122.25 L 0.00 0.00 L 130.75 0.08 L 261.50 0.16 L 254.50 2.41 C235.50,8.52 222.54,19.09 214.48,35.06 C205.08,53.68 204.94,72.87 214.06,91.76 C221.50,107.17 236.53,119.94 253.39,125.16 C282.41,134.15 314.65,119.81 328.44,91.78 C346.19,55.72 326.03,12.30 286.78,2.02 L 279.50 0.11 L 395.75 0.06 L 512.00 0.00 L 512.00 256.00 L 512.00 512.00 L 371.75 511.92 C249.99,511.84 232.25,511.65 237.22,510.45 C246.44,508.21 254.85,503.36 262.06,496.12 C269.12,489.02 272.98,482.24 275.47,472.54 C281.98,447.18 266.67,420.29 241.00,412.04 C221.92,405.90 201.13,410.91 186.88,425.09 C176.72,435.20 172.07,446.28 172.02,460.54 C171.94,483.85 187.90,504.17 211.21,510.44 C215.88,511.70 203.83,511.88 108.25,511.93 L 0.00 512.00 L 0.06 386.25 ZM 375.14 487.04 C403.35,478.32 417.54,446.25 404.81,420.00 C400.63,411.38 390.75,401.60 381.84,397.25 C349.12,381.30 310.00,404.95 310.00,440.68 C310.00,462.08 323.68,480.22 345.00,487.11 C352.77,489.63 366.88,489.59 375.14,487.04 ZM 114.41 440.02 C124.97,437.32 131.29,433.72 139.25,425.87 C147.01,418.21 152.11,408.72 154.49,397.47 C156.36,388.65 156.35,386.65 154.43,377.21 C152.02,365.35 147.07,356.25 138.75,348.40 C116.64,327.55 84.12,327.81 62.93,349.01 C52.05,359.88 47.00,372.09 47.00,387.50 C47.00,402.53 51.89,414.55 62.25,425.01 C76.65,439.55 95.30,444.91 114.41,440.02 ZM 472.22 388.72 C482.05,383.85 489.96,375.86 494.69,366.05 C497.97,359.27 498.38,357.47 498.79,348.38 C499.15,340.44 498.87,337.12 497.47,332.92 C492.36,317.51 481.62,306.54 466.77,301.56 C449.58,295.79 432.32,299.96 418.96,313.12 C396.24,335.49 402.66,374.19 431.38,387.96 C441.40,392.77 442.11,392.91 454.72,392.59 C464.20,392.35 465.48,392.07 472.22,388.72 ZM 136.41 175.35 C151.89,171.46 168.20,158.55 174.82,144.94 C186.19,121.59 181.90,94.77 163.97,77.00 C152.31,65.45 138.35,59.76 121.62,59.73 C103.33,59.70 90.11,65.05 77.60,77.56 C65.85,89.31 60.75,101.72 60.77,118.50 C60.79,134.65 66.05,147.34 77.58,159.05 C92.99,174.71 114.86,180.76 136.41,175.35 Z" fill="rgb(252,253,253)"/>
</g>
</svg>