<?xml version="1.0" standalone="no"?>
<!DOCTYPE svg PUBLIC "-//W3C//DTD SVG 20010904//EN"
 "http://www.w3.org/TR/2001/REC-SVG-20010904/DTD/svg10.dtd">
<svg version="1.0" xmlns="http://www.w3.org/2000/svg"
 width="408.000000pt" height="612.000000pt" viewBox="0 0 408.000000 612.000000"
 preserveAspectRatio="xMidYMid meet">

<g transform="translate(0.000000,612.000000) scale(0.100000,-0.100000)"
fill="#000000" stroke="none">
<path d="M1348 4310 l17 -30 148 0 147 0 0 -44 0 -45 -35 15 c-69 29 -164 5
-201 -51 -81 -124 84 -280 202 -190 18 14 35 25 38 25 3 0 6 -18 6 -40 0 -34
4 -42 30 -55 16 -8 31 -15 35 -15 3 0 5 84 5 188 -1 103 -1 193 0 200 0 8 24
12 84 12 95 0 105 -6 113 -68 4 -32 1 -44 -17 -62 -14 -14 -28 -19 -38 -15
-36 15 -48 15 -67 1 -18 -13 -18 -16 -5 -44 8 -17 52 -71 97 -120 73 -81 83
-89 99 -77 17 12 14 18 -39 83 l-57 70 28 6 c15 3 62 10 105 17 42 6 77 15 77
20 0 25 -22 60 -34 56 -8 -3 -30 -9 -48 -12 l-33 -6 0 53 c0 29 -4 63 -8 76
l-8 22 210 0 211 0 0 -71 0 -71 -40 36 c-22 19 -51 38 -65 42 -41 10 -97 -3
-124 -30 -23 -24 -24 -26 -7 -50 21 -32 30 -32 69 0 25 21 38 25 66 20 20 -3
42 -13 48 -23 19 -25 -2 -43 -117 -99 -103 -51 -116 -67 -82 -97 27 -25 39
-22 137 34 123 71 115 71 115 1 0 -55 2 -62 29 -81 16 -12 34 -21 40 -21 9 0
11 58 11 203 l-2 202 76 3 76 3 -15 29 -16 30 -639 0 -639 0 17 -30z m298
-175 c19 -14 19 -15 -2 -52 -30 -51 -101 -91 -140 -78 -24 9 -30 17 -32 48 -3
32 2 43 28 67 26 25 41 30 79 30 26 0 56 -7 67 -15z"/>
<path d="M1890 3780 c-97 -10 -221 -40 -340 -83 -131 -47 -351 -148 -357 -164
-7 -17 56 -127 126 -221 77 -101 237 -255 333 -320 42 -29 80 -52 84 -52 3 0
-6 16 -20 35 -75 98 -98 242 -61 378 5 18 2 17 -17 -8 -39 -52 -111 -126 -133
-137 -11 -6 -2 9 21 33 23 24 76 89 120 144 181 231 317 336 478 370 l61 12
-55 6 c-112 12 -167 14 -240 7z m15 -90 c-3 -5 -12 -10 -19 -10 -27 0 -187
-86 -317 -171 -135 -87 -225 -136 -236 -126 -7 8 262 184 348 228 60 30 206
87 227 89 2 0 0 -4 -3 -10z"/>
<path d="M2123 3706 c-80 -20 -176 -71 -238 -128 -57 -52 -68 -75 -18 -40 161
113 378 123 534 24 93 -59 139 -129 160 -244 l12 -65 66 50 c85 65 176 107
245 114 31 3 56 9 56 13 0 10 -260 133 -350 165 -41 15 -113 35 -160 46 l-85
19 68 -6 c37 -3 81 -10 98 -14 43 -13 35 -4 -22 26 -99 50 -254 67 -366 40z"/>
<path d="M2152 3591 c74 -11 153 -50 201 -99 35 -36 37 -42 26 -60 -19 -30 -1
-76 31 -81 35 -4 40 -16 40 -106 0 -44 -4 -85 -8 -91 -11 -17 -233 86 -282
130 -22 20 -47 36 -54 36 -27 0 -28 21 -2 45 55 51 22 139 -51 133 -43 -4 -89
-52 -64 -68 10 -6 20 -1 33 16 23 28 40 30 62 8 23 -22 20 -39 -14 -74 -16
-17 -30 -37 -30 -45 0 -7 -8 -16 -18 -19 -10 -4 -34 -20 -53 -37 -19 -18 -89
-58 -156 -90 -98 -46 -123 -62 -123 -78 0 -12 6 -21 13 -21 6 0 24 -23 39 -50
55 -99 180 -169 320 -178 48 -3 82 -10 89 -18 24 -29 109 -5 109 30 0 7 20 21
44 30 128 49 213 225 186 384 -13 79 -13 80 -5 109 5 14 1 26 -12 37 -10 9
-44 39 -76 67 -78 67 -134 91 -227 95 -73 3 -74 3 -18 -5z m38 -403 c72 -32
114 -56 107 -60 -13 -9 -502 -9 -493 -1 6 7 247 110 259 112 4 0 61 -23 127
-51z m220 -103 c0 -17 -51 -70 -96 -101 l-52 -36 -30 22 c-39 29 -77 21 -100
-20 -16 -28 -21 -30 -74 -30 -87 0 -163 33 -225 97 -29 30 -53 58 -53 63 0 6
121 10 315 10 173 0 315 -2 315 -5z"/>
<path d="M1040 3474 c-111 -51 -119 -64 -102 -158 31 -164 158 -286 296 -286
l41 0 -56 50 c-31 27 -81 80 -112 117 -58 71 -131 192 -122 201 3 3 6 3 8 1
42 -57 157 -185 222 -247 180 -171 404 -286 636 -326 92 -16 116 -14 48 4 -84
22 -245 111 -345 188 -146 115 -302 299 -378 450 -14 28 -30 52 -34 51 -4 -1
-50 -21 -102 -45z"/>
<path d="M1710 3333 c-15 -33 -27 -173 -14 -173 29 1 39 28 41 113 2 91 -5
106 -27 60z"/>
<path d="M3035 3326 c-76 -35 -162 -112 -288 -258 -130 -152 -183 -203 -263
-254 -155 -99 -278 -128 -583 -135 l-46 -1 55 -14 c39 -11 95 -14 190 -11 118
3 146 8 225 35 50 16 119 47 153 67 69 40 170 130 217 193 29 39 31 40 105 44
97 6 174 40 239 107 60 61 104 148 105 205 1 39 -1 41 -29 43 -16 1 -52 -8
-80 -21z m-10 -182 c-54 -43 -242 -112 -215 -79 6 7 36 23 68 35 31 12 77 30
102 40 56 23 71 24 45 4z"/>
<path d="M1425 2913 c88 -84 195 -154 271 -179 78 -25 220 -24 324 4 85 23
193 62 187 68 -2 2 -30 -1 -63 -8 -83 -16 -284 -13 -370 6 -114 25 -296 101
-376 157 -53 38 -41 16 27 -48z"/>
</g>
</svg>
